HIERARCHY
ROOT Hips
{
	OFFSET	0.00	0.00	0.00
	CHANNELS 6 Xposition Yposition Zposition Zrotation Xrotation Yrotation
	JOINT LeftUpLeg
	{
		OFFSET	 0.126116	-0.014019	-0.065224
		CHANNELS 3 Zrotation Xrotation Yrotation
		JOINT LeftLeg
		{
			OFFSET	 0.000000	 0.000000	 0.569914
			CHANNELS 3 Zrotation Xrotation Yrotation
			JOINT LeftFoot
			{
				OFFSET	 0.000000	 0.000000	 0.544423
				CHANNELS 3 Zrotation Xrotation Yrotation
				JOINT LeftToeBase
				{
					OFFSET	 0.000000	 0.000000	 0.207117
					CHANNELS 3 Zrotation Xrotation Yrotation
					End Site
					{
						OFFSET	 0.000000	 0.000000	 0.207117
					}
				}
			}
		}
	}
	JOINT RightUpLeg
	{
		OFFSET	-0.124023	-0.008373	-0.065224
		CHANNELS 3 Zrotation Xrotation Yrotation
		JOINT RightLeg
		{
			OFFSET	 0.000000	 0.000000	 0.570047
			CHANNELS 3 Zrotation Xrotation Yrotation
			JOINT RightFoot
			{
				OFFSET	 0.000000	 0.000000	 0.544354
				CHANNELS 3 Zrotation Xrotation Yrotation
				JOINT RightToeBase
				{
					OFFSET	 0.000000	 0.000000	 0.207540
					CHANNELS 3 Zrotation Xrotation Yrotation
					End Site
					{
						OFFSET	 0.000000	 0.000000	 0.207540
					}
				}
			}
		}
	}
	JOINT Spine
	{
		OFFSET	 0.000184	-0.007763	 0.117403
		CHANNELS 3 Zrotation Xrotation Yrotation
		JOINT Spine1
		{
			OFFSET	 0.000000	 0.000000	 0.137269
			CHANNELS 3 Zrotation Xrotation Yrotation
			JOINT Spine2
			{
				OFFSET	 0.000000	 0.000000	 0.156879
				CHANNELS 3 Zrotation Xrotation Yrotation
				JOINT LeftShoulder
				{
					OFFSET	 0.080501	-0.002496	 0.160144
					CHANNELS 3 Zrotation Xrotation Yrotation
					JOINT LeftArm
					{
						OFFSET	 0.000000	 0.000000	 0.164363
						CHANNELS 3 Zrotation Xrotation Yrotation
						JOINT LeftForeArm
						{
							OFFSET	 0.000000	 0.000000	 0.364576
							CHANNELS 3 Zrotation Xrotation Yrotation
							JOINT LeftHand
							{
								OFFSET	 0.000000	 0.000000	 0.360812
								CHANNELS 3 Zrotation Xrotation Yrotation
								JOINT LeftHandIndex1
								{
									OFFSET	 0.000000	 0.000000	 0.086006
									CHANNELS 3 Zrotation Xrotation Yrotation
									JOINT LeftHandIndex2
									{
										OFFSET	 0.000000	 0.000000	 0.047236
										CHANNELS 3 Zrotation Xrotation Yrotation
										JOINT LeftHandIndex3
										{
											OFFSET	-0.004284	-0.000551	 0.038166
											CHANNELS 3 Zrotation Xrotation Yrotation
											End Site
											{
												OFFSET	-0.004284	-0.000551	 0.038166
											}
										}
									}
								}
							}
						}
					}
				}
				JOINT Neck
				{
					OFFSET	 0.000000	 0.000000	 0.176489
					CHANNELS 3 Zrotation Xrotation Yrotation
					JOINT Head
					{
						OFFSET	 0.000000	-0.001747	 0.077940
						CHANNELS 3 Zrotation Xrotation Yrotation
						End Site
						{
							OFFSET	 0.000000	-0.001747	 0.077940
						}
					}
				}
				JOINT RightShoulder
				{
					OFFSET	-0.080363	 0.000306	 0.159706
					CHANNELS 3 Zrotation Xrotation Yrotation
					JOINT RightArm
					{
						OFFSET	 0.000000	 0.000000	 0.164196
						CHANNELS 3 Zrotation Xrotation Yrotation
						JOINT RightForeArm
						{
							OFFSET	 0.000000	 0.000000	 0.365611
							CHANNELS 3 Zrotation Xrotation Yrotation
							JOINT RightHand
							{
								OFFSET	 0.000000	 0.000000	 0.360648
								CHANNELS 3 Zrotation Xrotation Yrotation
								JOINT RightHandIndex1
								{
									OFFSET	 0.000000	 0.000000	 0.069977
									CHANNELS 3 Zrotation Xrotation Yrotation
									JOINT RightHandIndex2
									{
										OFFSET	 0.000000	 0.000000	 0.052305
										CHANNELS 3 Zrotation Xrotation Yrotation
										JOINT RightHandIndex3
										{
											OFFSET	 0.009002	-0.000782	 0.042196
											CHANNELS 3 Zrotation Xrotation Yrotation
											End Site
											{
												OFFSET	 0.009002	-0.000782	 0.042196
											}
										}
									}
								}
							}
						}
					}
				}
			}
		}
	}
}
MOTION
Frames:    6
Frame Time: 0.03333334
-0.080021	 6.661527	 1.253594	-94.113670	 2.250500	 1.495315	-55.089340	-11.765320	-176.636700	 18.484450	-41.117730	 6.237460	-91.428750	 74.823060	 67.683110	-2.211755	 46.146920	-0.454684	 32.060520	-11.022070	 173.270800	-7.289744	-45.765060	 0.573762	 19.091720	 86.072800	-1.801147	 2.025216	 54.290970	 0.758276	-17.095170	 5.904780	 1.708561	-16.433560	 6.767497	-11.849290	-3.045389	-22.616160	 5.441952	-91.229380	 83.958310	 178.242700	 90.394660	 59.844040	-84.012550	-1.062582	-18.169370	-50.425880	 24.962400	-13.244250	-11.459950	-11.344350	 9.665595	-24.791370	-5.213937	-0.202400	 3.566957	-1.378229	 35.397820	-2.634230	 0.578899	 5.158219	-0.046029	-5.025331	-15.304190	-11.068680	 87.489270	 87.595470	-176.500400	-7.419766	 77.536900	-13.543830	-4.308119	-12.731730	 27.555790	-18.733580	-20.234210	 9.872277	-1.579004	 24.329390	-62.333380	 5.070519	-0.690904	-9.399550	-2.350882	 35.473990	 5.254307
-0.080834	 6.693926	 1.254483	-87.861360	 3.272821	 1.878114	-57.708520	-11.706420	-178.769600	 19.714430	-42.412740	 7.239699	-92.360080	 73.593330	 68.720890	-2.266567	 42.542290	-0.346017	 28.463070	-8.589541	 176.679800	-4.318417	-41.349470	 2.493983	 43.878550	 85.510220	-29.357630	 2.045647	 53.577590	 0.727826	-18.052500	 5.434943	 1.410400	-16.550500	 8.556095	-12.265220	 0.539343	-25.661790	 6.677977	-91.229260	 83.958370	 178.242600	 101.250500	 66.402230	-91.900790	-0.786705	-19.352450	-51.576230	 21.949630	-16.550740	-8.458065	-11.086620	 8.803683	-23.207890	-5.213937	-0.202400	 3.566957	-1.378229	 35.397820	-2.634230	 4.631906	 7.112234	-4.951912	-0.860477	-19.782850	-3.741826	 87.496570	 87.590520	-176.503400	-4.380349	 77.714220	-16.460470	-4.026203	-12.789310	 27.986400	-18.639380	-20.434230	 9.971130	-0.716308	 25.656580	-62.492510	 5.070519	-0.690904	-9.399550	-2.350882	 35.473990	 5.254307
-0.083202	 6.730142	 1.254548	-82.437900	 3.283242	 1.952069	-57.534970	-11.061890	-179.740400	 19.980090	-43.046120	 7.510683	-91.636460	 73.348920	 68.444440	-2.267479	 42.474280	-0.344070	 24.202750	-6.063336	 177.193700	-1.476817	-38.732280	 4.149203	 64.101810	 86.671570	-51.294460	 2.153244	 49.126800	 0.556753	-17.771650	 5.354978	 1.526019	-15.810610	 9.801353	-11.778280	 3.940178	-27.444200	 7.980587	-91.229310	 83.958340	 178.242600	 113.032000	 72.882660	-101.369600	-1.576501	-17.924120	-51.115950	 16.051920	-19.786370	-5.480916	-10.806490	 8.729469	-22.177780	-5.213937	-0.202400	 3.566957	-1.378229	 35.397820	-2.634230	 8.499439	 9.040562	-8.731283	 3.558724	-23.613210	 3.618435	 87.547100	 87.555110	-176.564600	-4.321887	 77.690900	-15.803200	-2.375762	-12.239370	 29.027720	-17.319760	-20.482590	 10.215860	-1.501855	 24.683640	-63.367050	 5.070519	-0.690904	-9.399550	-2.350882	 35.473990	 5.254307
-0.082901	 6.762863	 1.254848	-78.054970	 4.083992	 2.093885	-59.631210	-10.965820	 179.077800	 21.366790	-43.520650	 8.552015	-87.519460	 72.190510	 64.609500	-2.406031	 13.490450	 0.300825	 20.181700	-5.833512	 176.630800	 0.890270	-38.092560	 5.568696	 94.878350	 88.239070	-83.107600	 2.186196	 47.453980	 0.499481	-16.784720	 5.083855	 1.116420	-14.574300	 9.233265	-10.458210	 5.421952	-27.776990	 7.731740	-91.229130	 83.958340	 178.242500	 120.423700	 77.750990	-107.420000	-3.187648	-15.068930	-49.950500	 10.341950	-22.372550	-3.991294	-10.343750	 9.157447	-20.855650	-5.213937	-0.202400	 3.566957	-1.378229	 35.397820	-2.634230	 10.966300	 9.797593	-10.766550	 6.507064	-24.741920	 8.078200	 87.611550	 87.508020	-176.646900	 4.684282	 76.461950	-23.401550	-2.625077	-12.797830	 29.712530	-16.552720	-21.470250	 9.466935	-0.476768	 26.182560	-63.362510	 5.070519	-0.690904	-9.399550	-2.350882	 35.473990	 5.254307
-0.083331	 6.798380	 1.255950	-73.012620	 4.904762	 1.610192	-55.435630	-12.566130	 177.257300	 19.330620	-44.817250	 7.286973	-91.496120	 73.444030	 69.766080	-2.368900	 31.698340	-0.071815	 17.842760	-3.961051	 176.241100	 1.962468	-35.150020	 5.827572	 171.017000	 86.505030	-159.499100	 2.319351	 37.811470	 0.220217	-15.417290	 5.014703	 1.236381	-12.956870	 7.748384	-9.650034	 7.811102	-27.584570	 8.441497	-91.229300	 83.958340	 178.242600	 113.078900	 84.674170	-99.282590	-4.007378	-13.059540	-47.981880	 5.483568	-25.570680	-2.766915	-10.032390	 8.930652	-19.599420	-5.213937	-0.202400	 3.566957	-1.378229	 35.397820	-2.634230	 13.278510	 11.004450	-12.110260	 9.357967	-25.712380	 12.719160	 87.727090	 87.418960	-176.799100	 6.760057	 74.354920	-24.455500	-0.925512	-12.030820	 30.461810	-14.469140	-21.961060	 9.326876	-0.355182	 26.495340	-64.087480	 5.070519	-0.690904	-9.399550	-2.350882	 35.473990	 5.254307
-0.081741	 6.836196	 1.257253	-68.375850	 5.612967	 2.047083	-51.980730	-13.826480	 175.215300	 18.006490	-46.673370	 6.541953	-96.637290	 73.920140	 75.846150	-2.362421	 32.723280	-0.095259	 13.875410	-2.235688	 175.112500	 3.428421	-31.174780	 6.022165	-169.687000	 86.238020	 179.998700	 2.338312	 35.724630	 0.168109	-13.876900	 5.344903	 0.217323	-10.943620	 6.650113	-7.921181	 8.998569	-27.348100	 7.821732	-91.229190	 83.958270	 178.242500	 11.268820	 85.553970	 1.761383	-3.884735	-12.398800	-46.212040	 2.962128	-27.733280	-2.019075	-10.462810	 8.008098	-20.490900	-5.213937	-0.202400	 3.566957	-1.378229	 35.397820	-2.634230	 14.639330	 11.233810	-12.565880	 11.144760	-25.441230	 15.864870	 87.726830	 87.418960	-176.798800	 8.774182	 71.477790	-24.621280	 0.308038	-11.766760	 31.687710	-12.758280	-22.672380	 8.983030	-0.541225	 26.245160	-64.168330	 5.070519	-0.690904	-9.399550	-2.350882	 35.473990	 5.254307
